# xmcd
#
# Track frame offsets:
#	150
#	10578
#	23104
#	32505
#	43411
#	53869
#	65973
#	77450
#	91470
#	103293
#	116647
#	129318
#	142718
#	154031
#	164777
#	178232
#
# Disc length: 2524 seconds
#
# Revision: 1
# Processed by: cddbd v1.5.1PL2 Copyright (c) Steve Scherf et al.
# Submitted via: audiograbber 1.83.01
#
DISCID=d709da10
DTITLE=Verschiedene - The Country Club Collection Country Lover
DYEAR=2006
DGENRE=Country
TTITLE0=Patsy Cline - Lovesick Blues
TTITLE1=Stonewall Jackson - Me and You and a Dog named Boo
TTITLE2=Jim Reeves - Dear Hearts and Gentle People
TTITLE3=Roger Miller - Husbands and Wives
TTITLE4=Ralph Emery - Hello Fool
TTITLE5=Hank Thompson - Wild side of Live
TTITLE6=Charlie Walker - Pick me up on your way down
TTITLE7=Hank Locklin - Baby I need you
TTITLE8=Skeeter Davis - I can't help you
TTITLE9=Nat Stuckey - Sweet Thang
TTITLE10=Bobby Helms - Fraulein
TTITLE11=Mickey Gilley - A Room full of Roses
TTITLE12=Connie Smith - Just one Time
TTITLE13=Billy Walker - Charlie's Shoes
TTITLE14=Johnny Paycheck - Someone to give my love to
TTITLE15=Johnny Russell - Blue Eyes crying in the Rain
EXTD=
EXTT0=
EXTT1=
EXTT2=
EXTT3=
EXTT4=
EXTT5=
EXTT6=
EXTT7=
EXTT8=
EXTT9=
EXTT10=
EXTT11=
EXTT12=
EXTT13=
EXTT14=
EXTT15=
PLAYORDER=
